<svg width="256" height="256" viewBox="0 0 256 256" fill="none" xmlns="http://www.w3.org/2000/svg">
<rect width="256" height="256" fill="url(#paint0_linear_0_1)"/>
<path d="M74.2188 230V224.531L79.0938 223.594V191.531H70.8125L70.3125 196.969H63.4062V184.5H104V196.969H97.0625L96.5625 191.531H88.2188V223.594L93.125 224.531V230H74.2188ZM125.25 230.656C121.896 230.656 118.844 230.281 116.094 229.531C113.344 228.781 110.635 227.479 107.969 225.625V214.625H115.031L116 221.094C116.938 221.885 118.229 222.531 119.875 223.031C121.521 223.51 123.312 223.75 125.25 223.75C126.896 223.75 128.281 223.521 129.406 223.062C130.552 222.604 131.417 221.958 132 221.125C132.604 220.271 132.906 219.271 132.906 218.125C132.906 217.042 132.635 216.083 132.094 215.25C131.573 214.396 130.698 213.625 129.469 212.938C128.26 212.229 126.615 211.552 124.531 210.906C120.927 209.844 117.938 208.688 115.562 207.438C113.208 206.167 111.438 204.656 110.25 202.906C109.083 201.135 108.5 199.01 108.5 196.531C108.5 194.073 109.177 191.906 110.531 190.031C111.906 188.135 113.802 186.646 116.219 185.562C118.635 184.479 121.427 183.917 124.594 183.875C128.094 183.833 131.188 184.25 133.875 185.125C136.583 186 138.917 187.219 140.875 188.781V199.031H134.031L132.844 192.781C132.052 192.281 130.979 191.844 129.625 191.469C128.292 191.094 126.771 190.906 125.062 190.906C123.604 190.906 122.312 191.125 121.188 191.562C120.083 192 119.208 192.635 118.562 193.469C117.917 194.302 117.594 195.312 117.594 196.5C117.594 197.521 117.875 198.417 118.438 199.188C119 199.938 119.938 200.656 121.25 201.344C122.583 202.01 124.417 202.729 126.75 203.5C131.771 204.896 135.573 206.74 138.156 209.031C140.76 211.323 142.062 214.333 142.062 218.062C142.062 220.646 141.365 222.885 139.969 224.781C138.573 226.656 136.615 228.104 134.094 229.125C131.573 230.146 128.625 230.656 125.25 230.656ZM145.688 230V224.531L150.531 223.594V190.938L145.688 190V184.5H167.25C170.75 184.5 173.75 185.042 176.25 186.125C178.75 187.208 180.667 188.76 182 190.781C183.354 192.802 184.031 195.229 184.031 198.062C184.031 200.729 183.365 203.115 182.031 205.219C180.698 207.323 178.844 208.979 176.469 210.188C174.094 211.396 171.354 212.01 168.25 212.031H159.656V223.594L164.531 224.531V230H145.688ZM174.969 230L167.312 210.344L175.531 208.312L182.156 223.625L186.031 224.531V230H174.969ZM159.656 205H167.094C169.719 205 171.677 204.448 172.969 203.344C174.281 202.219 174.938 200.594 174.938 198.469C174.938 196.365 174.292 194.688 173 193.438C171.708 192.167 169.792 191.531 167.25 191.531H159.656V205ZM189.062 230V224.531L193.031 223.781L205.906 207.469L193.781 190.781L190.094 190V184.5H207.875V190L203.531 190.406L211.344 201.344L219.156 190.406L214.906 190V184.5H232.438V190L228.406 190.781L216.75 206.656L229.812 223.75L234.156 224.531V230H215.938V224.531L219.844 224.156L211.406 212.594L202.781 224.156L206.594 224.531V230H189.062Z" fill="white"/>
<defs>
<linearGradient id="paint0_linear_0_1" x1="256" y1="128" x2="0" y2="128" gradientUnits="userSpaceOnUse">
<stop stop-color="#6F00FF"/>
<stop offset="1" stop-color="#8741FF"/>
</linearGradient>
</defs>
</svg>
